<svg width="18" height="24" viewBox="0 0 18 24" fill="none" xmlns="http://www.w3.org/2000/svg">
<path fill-rule="evenodd" clip-rule="evenodd" d="M5.88208 3.25C5.88208 3.91304 5.61869 4.54893 5.14985 5.01777C4.68101 5.48661 4.04512 5.75 3.38208 5.75C2.71904 5.75 2.08315 5.48661 1.61431 5.01777C1.14547 4.54893 0.88208 3.91304 0.88208 3.25C0.88208 2.58696 1.14547 1.95107 1.61431 1.48223C2.08315 1.01339 2.71904 0.75 3.38208 0.75C4.04512 0.75 4.68101 1.01339 5.14985 1.48223C5.61869 1.95107 5.88208 2.58696 5.88208 3.25ZM3.38208 14.5C4.04512 14.5 4.68101 14.2366 5.14985 13.7678C5.61869 13.2989 5.88208 12.663 5.88208 12C5.88208 11.337 5.61869 10.7011 5.14985 10.2322C4.68101 9.76339 4.04512 9.5 3.38208 9.5C2.71904 9.5 2.08315 9.76339 1.61431 10.2322C1.14547 10.7011 0.88208 11.337 0.88208 12C0.88208 12.663 1.14547 13.2989 1.61431 13.7678C2.08315 14.2366 2.71904 14.5 3.38208 14.5ZM3.38208 23.25C4.04512 23.25 4.68101 22.9866 5.14985 22.5178C5.61869 22.0489 5.88208 21.413 5.88208 20.75C5.88208 20.087 5.61869 19.4511 5.14985 18.9822C4.68101 18.5134 4.04512 18.25 3.38208 18.25C2.71904 18.25 2.08315 18.5134 1.61431 18.9822C1.14547 19.4511 0.88208 20.087 0.88208 20.75C0.88208 21.413 1.14547 22.0489 1.61431 22.5178C2.08315 22.9866 2.71904 23.25 3.38208 23.25ZM17.1321 3.25C17.1321 3.91304 16.8687 4.54893 16.3998 5.01777C15.931 5.48661 15.2951 5.75 14.6321 5.75C13.969 5.75 13.3332 5.48661 12.8643 5.01777C12.3955 4.54893 12.1321 3.91304 12.1321 3.25C12.1321 2.58696 12.3955 1.95107 12.8643 1.48223C13.3332 1.01339 13.969 0.75 14.6321 0.75C15.2951 0.75 15.931 1.01339 16.3998 1.48223C16.8687 1.95107 17.1321 2.58696 17.1321 3.25ZM14.6321 14.5C15.2951 14.5 15.931 14.2366 16.3998 13.7678C16.8687 13.2989 17.1321 12.663 17.1321 12C17.1321 11.337 16.8687 10.7011 16.3998 10.2322C15.931 9.76339 15.2951 9.5 14.6321 9.5C13.969 9.5 13.3332 9.76339 12.8643 10.2322C12.3955 10.7011 12.1321 11.337 12.1321 12C12.1321 12.663 12.3955 13.2989 12.8643 13.7678C13.3332 14.2366 13.969 14.5 14.6321 14.5ZM14.6321 23.25C15.2951 23.25 15.931 22.9866 16.3998 22.5178C16.8687 22.0489 17.1321 21.413 17.1321 20.75C17.1321 20.087 16.8687 19.4511 16.3998 18.9822C15.931 18.5134 15.2951 18.25 14.6321 18.25C13.969 18.25 13.3332 18.5134 12.8643 18.9822C12.3955 19.4511 12.1321 20.087 12.1321 20.75C12.1321 21.413 12.3955 22.0489 12.8643 22.5178C13.3332 22.9866 13.969 23.25 14.6321 23.25Z" fill="#CDCDCD"/>
</svg>
