<svg width="19" height="13" viewBox="0 0 19 13" fill="none" xmlns="http://www.w3.org/2000/svg">
<g clip-path="url(#clip0_72_3898)">
<path d="M17.3023 7.14425C16.282 5.56019 15.0034 4.3755 13.4663 3.59018C13.8757 4.28824 14.0804 5.04335 14.0804 5.85552C14.0804 7.09726 13.6391 8.15946 12.7565 9.0421C11.8738 9.92474 10.8116 10.3661 9.56989 10.3661C8.32815 10.3661 7.26596 9.92474 6.38331 9.0421C5.50067 8.15946 5.05935 7.09726 5.05935 5.85552C5.05935 5.04335 5.26407 4.28824 5.6735 3.59018C4.13643 4.3755 2.85777 5.56019 1.83753 7.14425C2.73024 8.52023 3.84948 9.61599 5.19527 10.4315C6.54105 11.247 7.99926 11.6548 9.56989 11.6548C11.1405 11.6548 12.5987 11.247 13.9445 10.4315C15.2903 9.61599 16.4095 8.52023 17.3023 7.14425ZM10.0532 3.27806C10.0532 3.14382 10.0062 3.02971 9.91221 2.93574C9.81824 2.84177 9.70414 2.79479 9.56989 2.79479C8.73088 2.79479 8.011 3.09516 7.41027 3.69589C6.80953 4.29663 6.50916 5.0165 6.50916 5.85552C6.50916 5.98976 6.55615 6.10387 6.65012 6.19784C6.74409 6.29181 6.8582 6.33879 6.99244 6.33879C7.12668 6.33879 7.24079 6.29181 7.33476 6.19784C7.42873 6.10387 7.47571 5.98976 7.47571 5.85552C7.47571 5.27828 7.68043 4.78493 8.08987 4.3755C8.49931 3.96606 8.99265 3.76134 9.56989 3.76134C9.70414 3.76134 9.81824 3.71435 9.91221 3.62038C10.0062 3.52641 10.0532 3.41231 10.0532 3.27806ZM18.591 7.14425C18.591 7.37246 18.5239 7.60403 18.3896 7.83895C17.4499 9.38274 16.1864 10.6194 14.599 11.5491C13.0115 12.4787 11.3352 12.9435 9.56989 12.9435C7.80461 12.9435 6.12825 12.477 4.54083 11.544C2.95342 10.6111 1.68986 9.37603 0.750161 7.83895C0.615919 7.60403 0.548798 7.37246 0.548798 7.14425C0.548798 6.91603 0.615919 6.68447 0.750161 6.44954C1.68986 4.91247 2.95342 3.67743 4.54083 2.74445C6.12825 1.81146 7.80461 1.34497 9.56989 1.34497C11.3352 1.34497 13.0115 1.81146 14.599 2.74445C16.1864 3.67743 17.4499 4.91247 18.3896 6.44954C18.5239 6.68447 18.591 6.91603 18.591 7.14425Z" fill="#848484"/>
</g>
<defs>
<clipPath id="clip0_72_3898">
<rect width="18.0422" height="12.8873" fill="white" transform="translate(0.548767 0.0563965)"/>
</clipPath>
</defs>
</svg>
