<svg width="22" height="21" viewBox="0 0 22 21" fill="none" xmlns="http://www.w3.org/2000/svg">
<path d="M19.3124 2.64549C18.7154 2.07242 17.9057 1.75049 17.0614 1.75049C16.2171 1.75049 15.4075 2.07242 14.8104 2.64549L3.55196 13.4555C3.22364 13.7705 2.99711 14.1698 2.89962 14.6055L2.03178 18.493C2.0089 18.5951 2.01302 18.7011 2.04379 18.8012C2.07455 18.9014 2.13098 18.9926 2.2079 19.0664C2.28482 19.1403 2.37979 19.1944 2.48414 19.224C2.58848 19.2535 2.69887 19.2575 2.80522 19.2355L6.8547 18.4024C7.30852 18.3088 7.7245 18.0913 8.05262 17.7761L19.3124 6.96673C19.9091 6.39362 20.2443 5.61645 20.2443 4.80611C20.2443 3.99577 19.9091 3.21861 19.3124 2.64549ZM15.7317 3.52924C16.0876 3.20605 16.5609 3.02892 17.0508 3.03551C17.5407 3.0421 18.0086 3.23189 18.355 3.56453C18.7014 3.89716 18.899 4.3464 18.9058 4.81672C18.9125 5.28703 18.7279 5.74132 18.3912 6.08299L17.8052 6.64548L15.1451 4.09236L15.7317 3.52924ZM14.2238 4.97611L16.884 7.52986L7.13269 16.893C6.9818 17.0378 6.79053 17.1376 6.58191 17.1805L3.51486 17.8117L4.17241 14.868C4.21706 14.6677 4.32106 14.4841 4.47189 14.3392L14.2238 4.97611Z" fill="#848484"/>
</svg>
